<?xml version="1.0" standalone="no"?>
<!DOCTYPE svg PUBLIC "-//W3C//DTD SVG 20010904//EN"
 "http://www.w3.org/TR/2001/REC-SVG-20010904/DTD/svg10.dtd">
<svg version="1.0" xmlns="http://www.w3.org/2000/svg"
 width="228.000000pt" height="228.000000pt" viewBox="0 0 228.000000 228.000000"
 preserveAspectRatio="xMidYMid meet">
<metadata>
Created by potrace 1.14, written by Peter Selinger 2001-2017
</metadata>
<g transform="translate(0.000000,228.000000) scale(0.100000,-0.100000)"
fill="#000000" stroke="none">
<path d="M1015 2066 c-12 -19 -34 -28 -91 -41 -198 -44 -352 -178 -423 -370
-13 -33 -38 -137 -56 -231 -26 -135 -60 -253 -155 -545 -131 -401 -132 -409
-74 -423 20 -5 35 -2 55 13 26 19 42 21 187 21 128 0 162 3 172 15 10 12 14
12 23 2 7 -7 27 -29 46 -49 31 -33 33 -39 23 -68 -29 -82 70 -145 126 -80 16
19 30 20 269 20 l252 0 25 -25 c32 -32 70 -32 103 1 20 21 24 32 20 60 -5 30
0 41 45 94 47 55 53 59 68 45 13 -12 48 -15 174 -15 143 0 159 -2 185 -21 20
-15 35 -18 55 -13 58 14 57 22 -74 423 -95 292 -129 410 -155 545 -50 255 -85
337 -195 447 -75 76 -155 121 -267 150 -51 13 -83 27 -99 44 -22 23 -29 25
-123 25 -95 0 -101 -1 -116 -24z"/>
</g>
</svg>
